<svg xmlns="http://www.w3.org/2000/svg" viewBox="0 0 128 128" role="img" aria-label="Tab URL Copy icon">
  <defs>
    <linearGradient id="bg" x1="16" y1="12" x2="112" y2="116" gradientUnits="userSpaceOnUse">
      <stop offset="0" stop-color="#111827"/>
      <stop offset="1" stop-color="#2563eb"/>
    </linearGradient>
    <linearGradient id="sheet" x1="44" y1="24" x2="84" y2="104" gradientUnits="userSpaceOnUse">
      <stop offset="0" stop-color="#ffffff"/>
      <stop offset="1" stop-color="#dbeafe"/>
    </linearGradient>
  </defs>
  <rect x="10" y="10" width="108" height="108" rx="26" fill="url(#bg)"/>
  <rect x="35" y="24" width="58" height="80" rx="12" fill="url(#sheet)" opacity="0.98"/>
  <rect x="43" y="34" width="42" height="8" rx="4" fill="#1d4ed8" opacity="0.9"/>
  <rect x="43" y="50" width="30" height="6" rx="3" fill="#93c5fd"/>
  <rect x="43" y="62" width="34" height="6" rx="3" fill="#93c5fd"/>
  <rect x="43" y="74" width="25" height="6" rx="3" fill="#93c5fd"/>
  <path d="M83 51h8a6 6 0 0 1 6 6v14a6 6 0 0 1-6 6h-8" fill="none" stroke="#ffffff" stroke-width="6" stroke-linecap="round" stroke-linejoin="round"/>
  <path d="M67 43l16 16-16 16" fill="none" stroke="#ffffff" stroke-width="6" stroke-linecap="round" stroke-linejoin="round"/>
</svg>
